/* XPM */
static char *result[] = {
"135 46 11 1 ",
" 	c None",
".	c #EC1C24",
"+	c #FFFFFF",
"@	c #F47F84",
"#	c #F68E92",
"$	c #F1555B",
"%	c #FEF1F1",
"&	c #FAC6C8",
"*	c #F9B8BB",
"=	c #ED2A32",
"-	c #F0474D",
"                                                                                                                                       ",
"                                                                                                                                       ",
"                                                                                                                                       ",
"                        ...                                                                                                            ",
"                      ........                                                                                                         ",
"                      ........                                                                                                         ",
"                    ....    ...  .................................................................................................     ",
"                    ....    ...  .................................................................................................     ",
"                   ...      ...    .................................................................................................   ",
"                   ...        ...  .................................................................................................   ",
"                   ...        ...  .................................................................................................   ",
"                 ...           .... ................................................................................................   ",
"                ...   ......   ....   ..............................................................................................   ",
"                ...   ......   ....   ..............................................................................................   ",
"                ...   ......     ...  ..............................................................................................   ",
"                ...   ......     ...  ..............................................................................................   ",
"              ...     ......     ...   .............+++...+++..+++...+++.....++++++...+++....+++.+++..+++++...+....++++++...........   ",
"              ...     ......       ...   ...........@++..++++..+...+++++++...+##+++...+++++..+...+++..+++++.+++..+++++.$$...........   ",
"              ...     ......       ...   ...........@++..++++..+...+++++++...+##+++...+++++..+...+++..+++++.+++..+++++.$$...........   ",
"             ...      ......        ...  ............++..+++++++...++..+++.$$+..+++..%+++++..+...++$..++.++.+++..+++................   ",
"           ...        ......        ...   ...........++&&+++++++..+++..+++.+++++++...+++.++**+..#++...++.+++++&..++@+++++...........   ",
"           ...        ......        ...   ...........++&&+++++++..+++..+++.+++++++...+++.++**+..#++...++.+++++&..++@+++++...........   ",
"           ...        ......          ... ...........++++.+++++...++++++++.+++++++...+++.+++++..+++.==++.+++++...+++..+++...........   ",
"         ....         ......           ...  .........++++.+++++.+++....+++.+++..+++..+...+++++..+++.++++...+++...++++++++...........   ",
"         ....         ......           ...  .........++++.+++++.+++....+++.+++..+++..+...+++++..+++.++++...+++...++++++++...........   ",
"        ...           ......           ...    .....................................................................-++..............   ",
"        ...           ......           ...    .....................................................................-++..............   ",
"        ...           ......             ...  ......................................................................................   ",
"      ...             ......             ...   .....................................................................................   ",
"      ...             ......             ...   .....................................................................................   ",
"      ...               ....              .... .....................................................................................   ",
"     ...                                    ...  ...................................................................................   ",
"     ...                                    ...  ...................................................................................   ",
"   ...                   ..                 ...   ................................................................................     ",
"   ...                   ..                 ...   ................................................................................     ",
"   ...                  ....                  ...                                                                                      ",
"   ..                   ....                  ...                                                                                      ",
"   ..                   ....                  ...                                                                                      ",
"   ...                  ....                  ...                                                                                      ",
"   .....                                    ...                                                                                        ",
"   .....                                    ...                                                                                        ",
"     .........................................                                                                                         ",
"     .........................................                                                                                         ",
"                                                                                                                                       ",
"                                                                                                                                       ",
"                                                                                                                                       "};
